<svg width="62.000000" height="62.000000" viewBox="0 0 62 62" fill="none" xmlns="http://www.w3.org/2000/svg" xmlns:xlink="http://www.w3.org/1999/xlink">
	<desc>
			Created with Pixso.
	</desc>
	<defs>
		<clipPath id="clip35_88">
			<rect id="svg" width="62.000000" height="62.000000" fill="white" fill-opacity="0"/>
		</clipPath>
	</defs>
	<g clip-path="url(#clip35_88)">
		<path id="path" d="M31 5.16C16.79 5.16 5.16 16.79 5.16 31C5.16 45.2 16.79 56.83 31 56.83C45.2 56.83 56.83 45.2 56.83 31C56.83 16.79 45.2 5.16 31 5.16Z" fill="#29B6F6" fill-opacity="1.000000" fill-rule="nonzero"/>
		<path id="path" d="M43.91 19.37L39.13 44.04C39.13 44.04 38.87 45.2 37.58 45.2C36.81 45.2 36.42 44.82 36.42 44.82L25.83 36.16L20.66 33.58L14.07 31.77C14.07 31.77 12.91 31.38 12.91 30.48C12.91 29.7 14.07 29.32 14.07 29.32L41.59 18.34C41.59 18.34 42.49 18.08 43.01 18.08C43.4 18.08 43.78 18.21 43.78 18.72C43.91 19.11 43.91 19.37 43.91 19.37Z" fill="#FFFFFF" fill-opacity="1.000000" fill-rule="nonzero"/>
		<path id="path" d="M29.7 39.39L25.31 43.78C25.31 43.78 25.18 43.91 24.92 43.91C24.8 43.91 24.8 43.91 24.67 43.91L25.96 36.16L29.7 39.39Z" fill="#B0BEC5" fill-opacity="1.000000" fill-rule="nonzero"/>
		<path id="path" d="M38.62 23.5C38.36 23.25 37.97 23.12 37.71 23.37L20.66 33.58C20.66 33.58 23.37 41.2 23.76 42.49C24.15 43.78 24.54 43.78 24.54 43.78L25.83 36.03L38.49 24.28C38.75 24.15 38.87 23.76 38.62 23.5Z" fill="#CFD8DC" fill-opacity="1.000000" fill-rule="nonzero"/>
	</g>
</svg>
