<svg width="62.000000" height="62.000000" viewBox="0 0 62 62" fill="none" xmlns="http://www.w3.org/2000/svg" xmlns:xlink="http://www.w3.org/1999/xlink">
	<desc>
			Created with Pixso.
	</desc>
	<defs>
		<clipPath id="clip35_83">
			<rect id="svg" width="62.000000" height="62.000000" fill="white" fill-opacity="0"/>
		</clipPath>
	</defs>
	<g clip-path="url(#clip35_83)">
		<path id="path" d="M6.32 55.92L9.81 43.27C7.62 39.52 6.45 35.26 6.45 31C6.45 17.43 17.43 6.45 31 6.45C37.58 6.45 43.65 9.04 48.3 13.69C52.95 18.34 55.54 24.41 55.54 31C55.54 44.56 44.56 55.54 31 55.54C26.86 55.54 22.86 54.5 19.24 52.57L6.32 55.92Z" fill="#FFFFFF" fill-opacity="1.000000" fill-rule="nonzero"/>
		<path id="path" d="M6.32 56.57C6.19 56.57 5.94 56.44 5.81 56.44C5.68 56.31 5.55 56.05 5.68 55.8L9.04 43.27C6.97 39.52 5.81 35.26 5.81 30.87C5.81 17.04 17.17 5.81 31 5.81C37.71 5.81 44.04 8.39 48.82 13.17C53.6 17.95 56.18 24.28 56.18 31C56.18 44.82 44.95 56.18 31 56.18C26.86 56.18 22.86 55.15 19.24 53.21L6.32 56.57Z" fill="#FFFFFF" fill-opacity="1.000000" fill-rule="nonzero"/>
		<path id="path" d="M31 6.45C37.58 6.45 43.65 9.04 48.3 13.69C52.95 18.34 55.54 24.41 55.54 31C55.54 44.56 44.56 55.54 31 55.54C26.86 55.54 22.86 54.5 19.24 52.57L6.32 55.92L9.81 43.27C7.62 39.52 6.45 35.26 6.45 31C6.45 17.43 17.43 6.45 31 6.45ZM31 5.16C16.79 5.16 5.16 16.79 5.16 31C5.16 35.39 6.2 39.65 8.39 43.4L5.03 55.54C4.9 55.92 5.03 56.44 5.42 56.83C5.68 57.09 5.94 57.22 6.32 57.22C6.45 57.22 6.58 57.22 6.71 57.22L19.24 53.99C22.86 55.92 26.99 56.83 31.12 56.83C45.33 56.83 56.96 45.2 56.96 31C56.96 24.15 54.25 17.56 49.47 12.78C44.43 7.87 37.97 5.16 31 5.16Z" fill="#CFD8DC" fill-opacity="1.000000" fill-rule="nonzero"/>
		<path id="path" d="M45.46 16.53C41.59 12.65 36.55 10.59 31 10.59C19.76 10.59 10.59 19.76 10.59 31C10.59 34.87 11.62 38.62 13.69 41.85L14.2 42.62L12.14 50.11L19.89 48.05L20.66 48.43C23.76 50.24 27.38 51.27 31 51.27C42.23 51.27 51.4 42.1 51.4 30.87C51.4 25.57 49.34 20.4 45.46 16.53Z" fill="#40C351" fill-opacity="1.000000" fill-rule="nonzero"/>
		<path id="path" d="M24.92 20.66C24.41 19.63 24.02 19.63 23.5 19.63C23.12 19.63 22.73 19.63 22.34 19.63C21.95 19.63 21.31 19.76 20.66 20.4C20.15 21.05 18.47 22.47 18.47 25.57C18.47 28.67 20.66 31.51 20.92 31.9C21.18 32.29 25.18 38.75 31.38 41.2C36.55 43.27 37.58 42.88 38.75 42.75C39.91 42.62 42.36 41.33 42.88 39.78C43.4 38.36 43.4 37.07 43.27 36.81C43.14 36.55 42.75 36.42 42.1 36.03C41.46 35.65 38.49 34.22 37.97 34.09C37.45 33.84 36.94 33.84 36.55 34.35C36.16 35 35 36.29 34.61 36.81C34.22 37.2 33.84 37.32 33.32 36.94C32.67 36.68 30.74 36.03 28.41 33.84C26.6 32.16 25.31 30.22 25.05 29.57C24.67 28.93 25.05 28.67 25.31 28.28C25.57 28.02 25.96 27.51 26.22 27.25C26.47 26.86 26.6 26.6 26.86 26.22C27.12 25.83 26.99 25.44 26.86 25.18C26.6 24.92 25.44 21.95 24.92 20.66Z" fill="#FFFFFF" fill-opacity="1.000000" fill-rule="evenodd"/>
	</g>
</svg>
