<svg width="414.160950" height="51.000000" viewBox="0 0 414.161 51" fill="none" xmlns="http://www.w3.org/2000/svg" xmlns:xlink="http://www.w3.org/1999/xlink">
	<desc>
			Created with Pixso.
	</desc>
	<defs/>
	<path id="Соед. линия 1 (Граница)" d="M40.49 49L0 49L0 51L40.49 51C42 51 43.41 50.73 44.71 50.19C46 49.65 47.19 48.85 48.26 47.77C49.34 46.7 50.14 45.51 50.68 44.22C51.22 42.92 51.49 41.51 51.49 40L51.49 11C51.49 9.75 51.71 8.6 52.14 7.54C52.58 6.48 53.24 5.51 54.12 4.63C55 3.75 55.97 3.09 57.03 2.65C58.09 2.21 59.24 2 60.49 2L397.5 2C398.74 2 399.89 2.21 400.95 2.65C402.01 3.09 402.98 3.75 403.86 4.63C404.74 5.51 405.4 6.48 405.84 7.54C406.28 8.6 406.5 9.75 406.5 11L406.5 31.58L402.55 27.63C402.15 27.24 401.53 27.24 401.13 27.63C400.74 28.03 400.74 28.65 401.13 29.05L406.79 34.7C407.18 35.1 407.81 35.1 408.2 34.7L413.86 29.05C414.26 28.65 414.26 28.03 413.86 27.63C413.46 27.24 412.84 27.24 412.45 27.63L408.5 31.58L408.5 11C408.5 9.48 408.23 8.07 407.69 6.77C407.15 5.48 406.35 4.29 405.27 3.22C404.2 2.14 403.01 1.34 401.72 0.8C400.42 0.26 399.01 0 397.5 0L60.49 0C58.97 0 57.56 0.26 56.26 0.8C54.97 1.34 53.78 2.14 52.71 3.22C51.63 4.29 50.83 5.48 50.29 6.77C49.75 8.07 49.49 9.48 49.49 11L49.49 40C49.49 41.24 49.27 42.39 48.83 43.45C48.39 44.51 47.73 45.48 46.85 46.36C45.97 47.24 45 47.9 43.94 48.34C42.88 48.78 41.73 49 40.49 49Z" fill="#EB8317" fill-opacity="1.000000" fill-rule="evenodd"/>
</svg>
