<svg width="266.660950" height="82.004105" viewBox="0 0 266.661 82.0041" fill="none" xmlns="http://www.w3.org/2000/svg" xmlns:xlink="http://www.w3.org/1999/xlink">
	<desc>
			Created with Pixso.
	</desc>
	<defs/>
	<path id="Соед. линия 3 (Граница)" d="M266.66 38L266.66 0L264.66 0L264.66 38C264.66 39.24 264.44 40.39 264 41.45C263.56 42.51 262.9 43.48 262.02 44.36C261.14 45.24 260.17 45.9 259.11 46.34C258.05 46.78 256.9 47 255.66 47L16.66 47C15.14 47 13.73 47.26 12.43 47.8C11.14 48.34 9.95 49.14 8.88 50.22C7.8 51.29 7 52.48 6.46 53.77C5.92 55.07 5.66 56.48 5.66 58L5.66 78.58L1.71 74.63C1.31 74.24 0.69 74.24 0.29 74.63C-0.1 75.03 -0.1 75.65 0.29 76.05L5.95 81.7C6.34 82.1 6.97 82.1 7.36 81.7L13.02 76.05C13.42 75.65 13.42 75.03 13.02 74.63C12.62 74.24 12 74.24 11.61 74.63L7.66 78.58L7.66 58C7.66 56.75 7.88 55.6 8.31 54.54C8.75 53.48 9.41 52.51 10.29 51.63C11.17 50.75 12.14 50.09 13.2 49.65C14.26 49.21 15.41 49 16.66 49L255.66 49C257.18 49 258.58 48.73 259.88 48.19C261.18 47.65 262.36 46.85 263.43 45.77C264.51 44.7 265.31 43.51 265.85 42.22C266.39 40.92 266.66 39.51 266.66 38Z" fill="#EB8317" fill-opacity="1.000000" fill-rule="evenodd"/>
</svg>
